<svg xmlns="http://www.w3.org/2000/svg" width="28" height="28" viewBox="0 0 28 28">
  <g id="Group_20" data-name="Group 20" transform="translate(-80.805 -5.924)">
    <path id="SVGID" d="M918.236,302.8a2.991,2.991,0,0,1,1.095.33,2.64,2.64,0,0,0,.553.258c.22,0,.539-.261.953-.788a5.969,5.969,0,0,0,.88-1.425c.081-.156-.093-.4-.515-.73a2.04,2.04,0,0,0-1.248-.5Zm-7.811-5.476a2.986,2.986,0,0,1,1.095.33,2.717,2.717,0,0,0,.553.258c.22,0,.539-.261.953-.788a5.967,5.967,0,0,0,.88-1.425c.081-.156-.093-.4-.515-.727a2.039,2.039,0,0,0-1.248-.5Zm4.335-2.551a3.091,3.091,0,0,1,1.153,1.072,2.5,2.5,0,0,1,.449,1.083,1.072,1.072,0,0,1-.188.707,8.411,8.411,0,0,1-1.141,1.08c-.62.527-1.237,1.04-1.848,1.544-.377.345-.568.611-.576.8s.122.281.388.281a2.248,2.248,0,0,0,.683-.142,4.612,4.612,0,0,0,2.236-1.552,9.942,9.942,0,0,0,1.4-2.4,8.31,8.31,0,0,0,.623-2.143q.234-2.637-1.483-3.481a.017.017,0,0,0-.011,0c-.151,0-.71,1.054-1.685,3.157m10.568-10.785a2.073,2.073,0,0,1,1.048-.182c.345.038.6.168.629.435a.409.409,0,0,1-.067.24,5.265,5.265,0,0,1-4.385,1.978,14.673,14.673,0,0,1,2.775-2.47M927.266,282h-.015a3.115,3.115,0,0,0-1.761.6,10.687,10.687,0,0,0-2.062,1.865c-.9,1.025-1.41,1.816-1.506,1.909a1.9,1.9,0,0,1-.851-.339,1.264,1.264,0,0,0-.472-.261,1.306,1.306,0,0,0-.484.3,6.6,6.6,0,0,0-.988,1.118,7.58,7.58,0,0,1-.776.918V288.1a1.217,1.217,0,0,1-.791.2c-.289-.023-.475-.038-.553-.038a2.872,2.872,0,0,0-1.434.765,3.37,3.37,0,0,1-2.114.762,2.029,2.029,0,0,1-1.685-.634,2.836,2.836,0,0,1-.484-1.752,13.184,13.184,0,0,1,.611-3.281c.156-.533.148-.817-.026-.849-.313-.015-.709.689-1.187,2.12a17.37,17.37,0,0,0-.857,4.518q0,3.036,2.586,3.1v.006c.014,0,.029,0,.046,0s.049,0,.075,0l0-.009c.663-.075,1.538-.747,2.632-2.016q.612-.708,1.069-.6a3.885,3.885,0,0,0,.579.107c.356,0,.834-.307,1.434-.915h0s.006-.009.012-.012l.084-.084v-.009c.571-.628.921-1.022,1.048-1.176s.214-.229.246-.188.2.211.518.515a1.5,1.5,0,0,0,.249.194,12.5,12.5,0,0,0-1.966,6.51c0,2.062.846,3.165,2.63,3.177v0l.012,0h.014v0q.491-.031,1.35-1.185a6.274,6.274,0,0,0,1.141-2.812c.017-.142-.023-.211-.116-.211s-.237.13-.423.388a1.878,1.878,0,0,1-.967.6,2.019,2.019,0,0,1-1.657-.631,2.66,2.66,0,0,1-.484-1.752,10.739,10.739,0,0,1,1.013-3.863,2.643,2.643,0,0,0,.542.055,5.389,5.389,0,0,0,3.354-1.187,10.8,10.8,0,0,0,2.635-2.806,3.84,3.84,0,0,0,.872-2.3,1.021,1.021,0,0,0-1.089-.8h-.009Z" transform="translate(-823.027 -273.076)" fill="#fff"/>
    <rect id="Rectangle_18" data-name="Rectangle 18" width="28" height="28" transform="translate(80.805 5.924)" fill="none"/>
  </g>
</svg>
